<?xml version="1.0" encoding="UTF-8" standalone="no"?>
<!-- Created with Inkscape (http://www.inkscape.org/) -->

<svg
   xmlns:dc="http://purl.org/dc/elements/1.1/"
   xmlns:cc="http://creativecommons.org/ns#"
   xmlns:rdf="http://www.w3.org/1999/02/22-rdf-syntax-ns#"
   xmlns:svg="http://www.w3.org/2000/svg"
   xmlns="http://www.w3.org/2000/svg"
   xmlns:sodipodi="http://sodipodi.sourceforge.net/DTD/sodipodi-0.dtd"
   xmlns:inkscape="http://www.inkscape.org/namespaces/inkscape"
   width="637.79498"
   height="70.777374"
   id="svg3110"
   version="1.1"
   inkscape:version="0.48.4 r9939"
   sodipodi:docname="tim.svg">
  <defs
     id="defs3112">
    <clipPath
       clipPathUnits="userSpaceOnUse"
       id="clipPath3026">
      <path
         inkscape:connector-curvature="0"
         d="M 0,0 800,0 800,600 0,600 0,0 z"
         id="path3028" />
    </clipPath>
  </defs>
  <sodipodi:namedview
     id="base"
     pagecolor="#ffffff"
     bordercolor="#666666"
     borderopacity="1.0"
     inkscape:pageopacity="0.0"
     inkscape:pageshadow="2"
     inkscape:zoom="0.35"
     inkscape:cx="351.04036"
     inkscape:cy="55.388687"
     inkscape:document-units="px"
     inkscape:current-layer="layer1"
     showgrid="false"
     inkscape:window-width="457"
     inkscape:window-height="414"
     inkscape:window-x="3"
     inkscape:window-y="49"
     inkscape:window-maximized="0"
     fit-margin-top="0"
     fit-margin-left="0"
     fit-margin-right="0"
     fit-margin-bottom="0" />
  <metadata
     id="metadata3115">
    <rdf:RDF>
      <cc:Work
         rdf:about="">
        <dc:format>image/svg+xml</dc:format>
        <dc:type
           rdf:resource="http://purl.org/dc/dcmitype/StillImage" />
        <dc:title></dc:title>
      </cc:Work>
    </rdf:RDF>
  </metadata>
  <g
     inkscape:label="Layer 1"
     inkscape:groupmode="layer"
     id="layer1"
     transform="translate(-23.959643,-516.97349)">
    <g
       transform="matrix(1.25,0,0,-1.25,-51.040732,765.72287)"
       id="g3022">
      <g
         id="g3024"
         clip-path="url(#clipPath3026)">
        <g
           id="g3030"
           transform="translate(61.4863,143.1768)">
          <path
             inkscape:connector-curvature="0"
             d="M 0,0 C -0.654,0.048 -1.066,0.132 -1.234,0.253 -1.406,0.375 -1.486,0.581 -1.486,0.87 l 0,50.379 c 0,0.292 0.08,0.497 0.252,0.619 0.168,0.117 0.58,0.203 1.234,0.251 0.652,0.049 1.486,0.071 2.504,0.071 l 0.799,0 c 1.838,0 2.988,-0.046 3.447,-0.141 0.461,-0.1 0.689,-0.363 0.689,-0.8 l 0,-50.379 C 7.439,0.436 7.211,0.167 6.75,0.073 6.291,-0.026 5.141,-0.073 3.303,-0.073 l -0.799,0 C 1.486,-0.073 0.652,-0.051 0,0"
             style="fill:#0069aa;fill-opacity:1;fill-rule:nonzero;stroke:none"
             id="path3032" />
        </g>
        <g
           id="g3034"
           transform="translate(80.5781,143.3193)">
          <path
             inkscape:connector-curvature="0"
             d="m 0,0 c -0.461,0.146 -0.691,0.415 -0.691,0.803 l 0,22.21 c 0,5.227 -0.122,9.897 -0.36,14.012 -0.054,0.433 0.143,0.724 0.578,0.871 0.438,0.145 1.452,0.216 3.049,0.216 l 0.36,0 c 1.502,0 2.494,-0.059 2.976,-0.181 0.486,-0.122 0.754,-0.352 0.803,-0.689 0.191,-1.16 0.314,-2.3 0.361,-3.412 1.258,1.55 2.854,2.771 4.793,3.667 1.934,0.896 4.088,1.341 6.459,1.341 4.451,0 7.844,-1.283 10.164,-3.846 1.209,-1.356 2.092,-2.976 2.651,-4.863 0.554,-1.889 0.834,-4.234 0.834,-7.042 l 0,-22.284 C 31.977,0.415 31.732,0.146 31.252,0 30.766,-0.143 29.701,-0.216 28.053,-0.216 l -0.434,0 c -1.789,0 -2.904,0.073 -3.338,0.216 -0.437,0.146 -0.652,0.415 -0.652,0.803 l 0,19.38 c 0,2.806 -0.108,4.829 -0.328,6.063 -0.217,1.233 -0.692,2.233 -1.416,3.012 -1.258,1.352 -3.172,2.03 -5.733,2.03 -2.519,0 -4.599,-0.627 -6.246,-1.885 C 8.648,28.433 7.949,27.007 7.803,25.119 7.707,23.908 7.658,21.176 7.658,16.917 l 0,-16.114 C 7.658,0.415 7.416,0.146 6.93,0 6.445,-0.143 5.379,-0.216 3.738,-0.216 l -0.363,0 C 1.582,-0.216 0.457,-0.143 0,0"
             style="fill:#0069aa;fill-opacity:1;fill-rule:nonzero;stroke:none"
             id="path3036" />
        </g>
        <g
           id="g3038"
           transform="translate(126.4902,143.4658)">
          <path
             inkscape:connector-curvature="0"
             d="m 0,0 c -2.275,0.727 -4.188,1.649 -5.734,2.761 -0.338,0.241 -0.51,0.51 -0.51,0.796 0,0.339 0.293,1.092 0.871,2.252 l 0.51,1.017 c 0.388,0.772 0.699,1.317 0.943,1.632 0.242,0.313 0.508,0.471 0.799,0.471 0.096,0 0.289,-0.047 0.58,-0.144 3.629,-2.031 6.994,-3.049 10.092,-3.049 1.982,0 3.556,0.399 4.719,1.2 1.16,0.795 1.74,1.895 1.74,3.298 0,1.357 -0.604,2.373 -1.815,3.052 -1.211,0.677 -3.459,1.451 -6.75,2.323 -3.726,1.064 -6.449,2.443 -8.17,4.135 -1.713,1.695 -2.574,4.069 -2.574,7.116 0,3.679 1.305,6.569 3.92,8.675 2.613,2.104 6.072,3.156 10.379,3.156 2.227,0 4.369,-0.316 6.426,-0.942 2.056,-0.631 3.883,-1.55 5.48,-2.759 0.293,-0.194 0.434,-0.432 0.434,-0.724 0,-0.341 -0.387,-1.115 -1.158,-2.323 l -0.51,-0.801 C 19.041,30.129 18.584,29.52 18.293,29.329 18,29.136 17.688,29.157 17.352,29.399 14.738,31.094 12.051,31.943 9.293,31.943 7.211,31.943 5.615,31.58 4.504,30.854 3.387,30.129 2.83,29.061 2.83,27.657 c 0,-0.967 0.33,-1.755 0.983,-2.356 0.652,-0.607 1.462,-1.08 2.427,-1.417 0.971,-0.34 2.444,-0.8 4.432,-1.379 3.967,-1.159 6.861,-2.53 8.674,-4.102 1.814,-1.573 2.722,-3.934 2.722,-7.076 C 22.068,7.454 20.713,4.417 18,2.217 15.291,0.012 11.736,-1.088 7.334,-1.088 4.721,-1.088 2.273,-0.724 0,0"
             style="fill:#0069aa;fill-opacity:1;fill-rule:nonzero;stroke:none"
             id="path3040" />
        </g>
        <g
           id="g3042"
           transform="translate(161.4063,145.1387)">
          <path
             inkscape:connector-curvature="0"
             d="M 0,0 C -0.969,0.966 -1.684,2.223 -2.141,3.772 -2.6,5.322 -2.832,7.28 -2.832,9.654 l 0,20.035 -5.879,0 c -0.34,0 -0.568,0.17 -0.691,0.507 -0.121,0.336 -0.182,0.968 -0.182,1.886 l 0,0.511 c 0,0.87 0.047,1.472 0.146,1.813 0.094,0.338 0.315,0.532 0.655,0.581 2.078,0.58 3.664,1.294 4.754,2.141 1.09,0.849 1.896,1.949 2.431,3.305 0.534,1.351 0.92,3.216 1.16,5.586 0.047,0.338 0.243,0.547 0.583,0.619 0.335,0.071 1.041,0.109 2.103,0.109 l 0.584,0 c 1.111,0 1.836,-0.061 2.176,-0.181 0.34,-0.122 0.51,-0.351 0.51,-0.689 l 0,-9.584 9.146,0 c 0.336,0 0.555,-0.17 0.654,-0.508 0.094,-0.34 0.145,-1.187 0.145,-2.54 l 0,-0.507 c 0,-1.356 -0.051,-2.206 -0.145,-2.542 C 15.219,29.859 15,29.689 14.664,29.689 l -9.146,0 0,-19.455 C 5.518,8.925 5.598,7.912 5.771,7.185 5.938,6.458 6.266,5.853 6.752,5.37 7.574,4.596 8.783,4.21 10.383,4.21 c 1.402,0 2.83,0.264 4.281,0.797 0.336,0.097 0.604,0.023 0.799,-0.218 0.193,-0.242 0.484,-0.97 0.869,-2.178 l 0.219,-0.652 c 0.34,-1.018 0.51,-1.719 0.51,-2.105 0,-0.438 -0.245,-0.75 -0.729,-0.946 -1.16,-0.533 -2.459,-0.943 -3.885,-1.233 C 11.02,-2.614 9.605,-2.761 8.203,-2.761 4.668,-2.761 1.936,-1.843 0,0"
             style="fill:#0069aa;fill-opacity:1;fill-rule:nonzero;stroke:none"
             id="path3044" />
        </g>
        <g
           id="g3046"
           transform="translate(185.6133,189.8525)">
          <path
             inkscape:connector-curvature="0"
             d="m 0,0 c -1.041,1.063 -1.559,2.324 -1.559,3.773 0,1.456 0.518,2.711 1.559,3.779 1.041,1.063 2.313,1.595 3.811,1.595 1.503,0 2.773,-0.532 3.816,-1.595 C 8.666,6.484 9.186,5.229 9.186,3.773 9.186,2.324 8.666,1.063 7.627,0 6.584,-1.064 5.314,-1.596 3.811,-1.596 2.313,-1.596 1.041,-1.064 0,0 m 0.291,-46.568 c -0.461,0.122 -0.687,0.376 -0.687,0.762 l 0,36.444 c 0,0.383 0.226,0.637 0.687,0.759 0.463,0.123 1.563,0.182 3.305,0.182 l 0.433,0 c 1.698,0 2.772,-0.059 3.235,-0.182 0.455,-0.122 0.683,-0.376 0.683,-0.759 l 0,-36.444 c 0,-0.337 -0.24,-0.581 -0.722,-0.727 -0.483,-0.143 -1.547,-0.216 -3.196,-0.216 l -0.433,0 c -1.742,0 -2.842,0.059 -3.305,0.181"
             style="fill:#0069aa;fill-opacity:1;fill-rule:nonzero;stroke:none"
             id="path3048" />
        </g>
        <g
           id="g3050"
           transform="translate(210.332,145.1387)">
          <path
             inkscape:connector-curvature="0"
             d="m 0,0 c -0.969,0.966 -1.686,2.223 -2.141,3.772 -0.461,1.55 -0.691,3.508 -0.691,5.882 l 0,20.035 -5.879,0 c -0.34,0 -0.568,0.17 -0.691,0.507 -0.119,0.336 -0.182,0.968 -0.182,1.886 l 0,0.511 c 0,0.87 0.051,1.472 0.146,1.813 0.098,0.338 0.315,0.532 0.655,0.581 2.08,0.58 3.666,1.294 4.754,2.141 1.088,0.849 1.898,1.949 2.431,3.305 0.535,1.351 0.918,3.216 1.16,5.586 0.051,0.338 0.245,0.547 0.584,0.619 0.336,0.071 1.04,0.109 2.104,0.109 l 0.58,0 c 1.113,0 1.838,-0.061 2.176,-0.181 0.34,-0.122 0.51,-0.351 0.51,-0.689 l 0,-9.584 9.148,0 c 0.336,0 0.555,-0.17 0.652,-0.508 0.098,-0.34 0.145,-1.187 0.145,-2.54 l 0,-0.507 c 0,-1.356 -0.047,-2.206 -0.145,-2.542 C 15.219,29.859 15,29.689 14.664,29.689 l -9.148,0 0,-19.455 C 5.516,8.925 5.6,7.912 5.773,7.185 5.939,6.458 6.268,5.853 6.75,5.37 7.572,4.596 8.783,4.21 10.381,4.21 c 1.402,0 2.832,0.264 4.283,0.797 0.336,0.097 0.604,0.023 0.797,-0.218 0.193,-0.242 0.486,-0.97 0.871,-2.178 l 0.217,-0.652 c 0.34,-1.018 0.51,-1.719 0.51,-2.105 0,-0.438 -0.243,-0.75 -0.727,-0.946 C 15.17,-1.625 13.877,-2.035 12.447,-2.325 11.021,-2.614 9.609,-2.761 8.203,-2.761 4.668,-2.761 1.934,-1.843 0,0"
             style="fill:#0069aa;fill-opacity:1;fill-rule:nonzero;stroke:none"
             id="path3052" />
        </g>
        <g
           id="g3054"
           transform="translate(237.1895,146.2266)">
          <path
             inkscape:connector-curvature="0"
             d="m 0,0 c -1.209,1.355 -2.092,2.976 -2.648,4.86 -0.557,1.89 -0.834,4.239 -0.834,7.045 l 0,22.284 c 0,0.387 0.242,0.653 0.726,0.799 0.483,0.146 1.547,0.217 3.194,0.217 l 0.437,0 c 1.787,0 2.898,-0.071 3.336,-0.217 0.435,-0.146 0.652,-0.412 0.652,-0.799 l 0,-19.38 C 4.863,12.001 4.975,9.981 5.189,8.747 5.408,7.512 5.881,6.509 6.605,5.733 7.863,4.379 9.729,3.701 12.197,3.701 c 1.256,0 2.432,0.171 3.52,0.51 1.086,0.337 1.996,0.795 2.722,1.379 1.207,0.966 1.889,2.392 2.034,4.282 0.095,1.208 0.146,3.941 0.146,8.203 l 0,16.114 c 0,0.387 0.238,0.653 0.725,0.799 0.482,0.146 1.549,0.217 3.191,0.217 l 0.363,0 c 1.793,0 2.918,-0.071 3.379,-0.217 0.457,-0.146 0.69,-0.412 0.69,-0.799 l 0,-22.212 c 0,-5.227 0.119,-9.898 0.363,-14.011 0.049,-0.435 -0.146,-0.727 -0.584,-0.873 -0.433,-0.143 -1.453,-0.216 -3.047,-0.216 l -0.361,0 c -1.504,0 -2.494,0.059 -2.979,0.181 -0.486,0.122 -0.748,0.351 -0.798,0.691 -0.194,1.163 -0.313,2.299 -0.364,3.409 C 19.939,-0.388 18.354,-1.61 16.443,-2.505 14.529,-3.401 12.414,-3.849 10.094,-3.849 5.688,-3.849 2.326,-2.566 0,0"
             style="fill:#0069aa;fill-opacity:1;fill-rule:nonzero;stroke:none"
             id="path3056" />
        </g>
        <g
           id="g3058"
           transform="translate(281.3281,145.1387)">
          <path
             inkscape:connector-curvature="0"
             d="m 0,0 c -0.971,0.966 -1.684,2.223 -2.143,3.772 -0.462,1.55 -0.689,3.508 -0.689,5.882 l 0,20.035 -5.883,0 c -0.34,0 -0.568,0.17 -0.687,0.507 -0.119,0.336 -0.182,0.968 -0.182,1.886 l 0,0.511 c 0,0.87 0.051,1.472 0.146,1.813 0.098,0.338 0.313,0.532 0.653,0.581 2.08,0.58 3.666,1.294 4.756,2.141 1.088,0.849 1.898,1.949 2.431,3.305 0.532,1.351 0.92,3.216 1.16,5.586 0.051,0.338 0.245,0.547 0.581,0.619 0.339,0.071 1.043,0.109 2.107,0.109 l 0.578,0 c 1.113,0 1.84,-0.061 2.18,-0.181 0.336,-0.122 0.506,-0.351 0.506,-0.689 l 0,-9.584 9.146,0 c 0.34,0 0.557,-0.17 0.656,-0.508 0.098,-0.34 0.147,-1.187 0.147,-2.54 l 0,-0.507 c 0,-1.356 -0.049,-2.206 -0.147,-2.542 C 15.217,29.859 15,29.689 14.66,29.689 l -9.146,0 0,-19.455 C 5.514,8.925 5.602,7.912 5.77,7.185 5.939,6.458 6.266,5.853 6.748,5.37 7.572,4.596 8.783,4.21 10.381,4.21 c 1.4,0 2.828,0.264 4.279,0.797 0.34,0.097 0.61,0.023 0.803,-0.218 0.189,-0.242 0.478,-0.97 0.869,-2.178 l 0.217,-0.652 c 0.338,-1.018 0.508,-1.719 0.508,-2.105 0,-0.438 -0.244,-0.75 -0.725,-0.946 C 15.17,-1.625 13.877,-2.035 12.449,-2.325 11.02,-2.614 9.604,-2.761 8.199,-2.761 4.668,-2.761 1.934,-1.843 0,0"
             style="fill:#0069aa;fill-opacity:1;fill-rule:nonzero;stroke:none"
             id="path3060" />
        </g>
        <g
           id="g3062"
           transform="translate(307.2773,147.3848)">
          <path
             inkscape:connector-curvature="0"
             d="m 0,0 c -2.977,3.342 -4.465,8.035 -4.465,14.086 0,6.678 1.598,11.796 4.789,15.352 3.196,3.558 7.744,5.334 13.651,5.334 5.418,0 9.617,-1.667 12.595,-5.007 2.977,-3.338 4.465,-8.035 4.465,-14.083 C 31.035,9.004 29.438,3.887 26.242,0.328 23.051,-3.228 18.523,-5.007 12.668,-5.007 7.197,-5.007 2.975,-3.338 0,0 m 19.893,5.556 c 1.668,2.203 2.502,5.409 2.502,9.618 0,3.821 -0.702,6.836 -2.104,9.037 -1.404,2.204 -3.607,3.304 -6.607,3.304 -3.049,0 -5.395,-1.1 -7.043,-3.304 -1.643,-2.201 -2.467,-5.408 -2.467,-9.619 0,-3.821 0.689,-6.833 2.07,-9.036 1.381,-2.201 3.567,-3.303 6.569,-3.303 3.05,0 5.41,1.102 7.08,3.303"
             style="fill:#0069aa;fill-opacity:1;fill-rule:nonzero;stroke:none"
             id="path3064" />
        </g>
        <g
           id="g3066"
           transform="translate(485.4453,195.4141)">
          <path
             inkscape:connector-curvature="0"
             d="m 0,0 c 1.053,0 1.266,-0.14 1.266,-3.869 l 0,-3.445 c 0,-3.584 -0.28,-4.007 -1.266,-4.007 l -11.953,0 0,-40.287 c 0,-0.914 -1.119,-1.125 -5.131,-1.125 l -2.109,0 c -4.077,0 -4.78,0.211 -4.78,1.125 l 0,40.287 -11.951,0 c -0.99,0 -1.269,0.284 -1.269,4.007 l 0,3.445 C -37.197,0 -36.982,0 -35.924,0 L 0,0 z M 21.445,-1.128 C 21.445,-0.354 20.32,0 16.455,0 l -2.25,0 C 10.125,0 9.422,-0.354 9.422,-1.128 l 0,-50.48 c 0,-0.914 0.703,-1.125 4.783,-1.125 l 2.25,0 c 3.865,0 4.99,0.211 4.99,1.125 l 0,50.48 z M 79.801,0 76.285,0 c -4.5,0 -4.779,-0.493 -5.133,-1.27 l -6.961,-16.733 c -2.32,-5.552 -4.709,-11.527 -5.625,-14.624 -0.841,3.097 -2.39,7.244 -5.623,14.909 L 45.984,-1.27 C 45.561,-0.283 43.803,0 40.008,0 l -3.942,0 c -3.867,0 -4.634,-0.354 -4.634,-1.128 l 0,-50.48 c 0,-0.914 0.767,-1.125 4.779,-1.125 l 2.176,0 c 3.939,0 5.064,0.211 5.064,1.125 l 0,29.951 0.283,0 c 0,0 0.352,-1.408 0.912,-2.672 l 8.018,-18.774 c 0.352,-0.839 0.772,-1.191 4.496,-1.191 l 2.391,0 c 3.797,0 4.08,0.276 4.431,1.191 l 7.313,18.071 c 0.705,1.689 1.193,3.375 1.193,3.375 l 0.283,0 0,-29.951 c 0,-0.914 0.772,-1.125 4.92,-1.125 l 2.11,0.003 c 3.869,0 4.99,0.208 4.99,1.122 l 0,50.48 C 84.791,-0.354 83.67,0 79.801,0"
             style="fill:#0069aa;fill-opacity:1;fill-rule:nonzero;stroke:none"
             id="path3068" />
        </g>
        <g
           id="g3070"
           transform="translate(431.127,184.1279)">
          <path
             inkscape:connector-curvature="0"
             d="m 0,0 -57.041,0 c -0.842,0 -1.605,0.343 -2.15,0.897 -0.545,0.548 -0.883,1.302 -0.883,2.136 l 0,5.211 c 0,0.836 0.338,1.592 0.885,2.144 0.548,0.55 1.308,0.889 2.148,0.889 l 57.041,0 c 0.842,0 1.604,-0.344 2.152,-0.9 C 2.693,9.829 3.031,9.075 3.031,8.244 l 0,-5.208 C 3.031,2.2 2.693,1.449 2.152,0.898 1.604,0.343 0.842,0 0,0 m -34.832,-9.439 -22.209,0 c -0.84,0 -1.6,-0.345 -2.148,-0.893 -0.547,-0.548 -0.885,-1.31 -0.885,-2.146 l 0,-5.209 c 0,-0.833 0.338,-1.587 0.883,-2.135 0.545,-0.552 1.308,-0.897 2.15,-0.897 l 22.209,0 0,11.28 z M 2.152,-10.34 C 1.604,-9.785 0.842,-9.439 0,-9.439 l -22.209,0 0,-11.28 22.209,0 c 0.842,0 1.604,0.345 2.152,0.901 0.541,0.546 0.879,1.298 0.879,2.131 l 0,5.209 c 0,0.834 -0.338,1.59 -0.879,2.138 m 0,-20.723 c -0.548,0.556 -1.31,0.901 -2.152,0.901 l -22.209,0 0,-11.276 22.209,0 c 0.842,0 1.604,0.345 2.152,0.9 0.541,0.546 0.879,1.301 0.879,2.133 l 0,5.211 c 0,0.83 -0.338,1.585 -0.879,2.131 m -36.984,0.901 -22.209,0 c -0.84,0 -1.6,-0.34 -2.148,-0.89 -0.547,-0.55 -0.885,-1.307 -0.885,-2.142 l 0,-5.211 c 0,-0.836 0.338,-1.588 0.883,-2.14 0.545,-0.552 1.31,-0.893 2.15,-0.893 l 22.209,0 0,11.276 z"
             style="fill:#ef3e42;fill-opacity:1;fill-rule:nonzero;stroke:none"
             id="path3072" />
        </g>
      </g>
    </g>
  </g>
</svg>
